<?xml version="1.0" encoding="utf-8"?>
<!-- Generator: Adobe Illustrator 24.3.0, SVG Export Plug-In . SVG Version: 6.00 Build 0)  -->
<svg version="1.1" id="Social_Icons" xmlns="http://www.w3.org/2000/svg" xmlns:xlink="http://www.w3.org/1999/xlink" x="0px"
	 y="0px" viewBox="0 0 128 128" style="enable-background:new 0 0 128 128;" xml:space="preserve">
<style type="text/css">
	.st0{fill:none;}
	.st1{fill-rule:evenodd;clip-rule:evenodd;fill:#66FCF1;}
</style>
<rect x="-210.7" y="-33" class="st0" width="128" height="128"/>
<path id="Photoshop" class="st1" d="M27.9,28.9c0-0.4,0.8-0.7,1.3-0.7c3.7-0.2,9.3-0.3,15-0.3c16.1,0,22.4,8.9,22.4,20.3
	c0,14.9-10.7,21.3-23.9,21.3c-2.2,0-3-0.1-4.5-0.1v22.5c0,0.5-0.2,0.7-0.7,0.7h-8.9c-0.5,0-0.7-0.2-0.7-0.7L27.9,28.9L27.9,28.9z
	 M38.3,60c1.3,0.1,2.4,0.1,4.7,0.1c6.8,0,13.2-2.4,13.2-11.7c0-7.4-4.6-11.2-12.3-11.2c-2.3,0-4.5,0.1-5.6,0.2L38.3,60L38.3,60z
	 M88.3,53c-4.6,0-6.2,2.3-6.2,4.3c0,2.1,1,3.6,7.2,6.8c9.1,4.5,12,8.7,12,15c0,9.4-7.1,14.4-16.7,14.4c-5.1,0-9.4-1.1-11.9-2.5
	c-0.4-0.2-0.5-0.5-0.5-0.9v-8.6c0-0.6,0.3-0.8,0.7-0.5c3.7,2.4,7.9,3.5,11.7,3.5c4.6,0,6.5-1.9,6.5-4.6c0-2.1-1.3-4-7.2-7
	c-8.3-4-11.7-8-11.7-14.8c0-7.6,5.9-13.8,16.1-13.8c5,0,8.5,0.8,10.4,1.6c0.5,0.3,0.6,0.8,0.6,1.2v8c0,0.5-0.3,0.8-0.9,0.6
	C95.9,54,92.1,53,88.3,53z M6,0h116c3.3,0,6,2.7,6,6v116c0,3.3-2.7,6-6,6H6c-3.3,0-6-2.7-6-6V6C0,2.7,2.7,0,6,0z"/>
</svg>
