<?xml version="1.0" encoding="utf-8"?>
<!-- Generator: Adobe Illustrator 24.3.0, SVG Export Plug-In . SVG Version: 6.00 Build 0)  -->
<svg version="1.1" id="Layer_1" xmlns="http://www.w3.org/2000/svg" xmlns:xlink="http://www.w3.org/1999/xlink" x="0px" y="0px"
	 viewBox="0 0 512 512" style="enable-background:new 0 0 512 512;" xml:space="preserve">
<style type="text/css">
	.st0{fill:#66FCF1;}
</style>
<g>
	<path class="st0" d="M301.1,267c0,25.1,14.5,36.1,33.8,36.1c4.3,0,8.4-0.3,11.9-1.5v-68.8c-2.5-1-5.8-1.3-9.4-1.3
		C317.8,231.5,301.1,243.4,301.1,267z"/>
	<path class="st0" d="M375.9,66.4H136.1c-42,0-76.1,34.1-76.1,76.1v227.1c0,42,34.1,76.1,76.1,76.1h239.9c42,0,76.1-34.1,76.1-76.1
		V142.5C452,100.5,417.9,66.4,375.9,66.4z M261.4,330.4c-0.3,0.2-0.6,0.4-1,0.4h-36.1c-2.3,0-3.6-0.8-4.3-2.3
		c-11.2-19.8-22.4-39.6-33.8-60.5H186c-10.2,20.3-21.3,40.9-32,60.7c-0.6,1.4-2.1,2.2-3.6,2h-34.3c-1.8,0-1.8-1.5-1-2.5l48.8-80.8
		L116.2,167c-0.6-0.6-0.5-1.6,0.1-2.1c0.3-0.3,0.7-0.4,1.2-0.4h35.8c1.8,0,2.5,0.3,3.3,2c10.2,20.1,22.1,40.1,32.5,60.2h0.3
		c9.9-20.3,21.1-39.9,31.5-60.2c0.8-1.3,1.3-2,3.6-2h32.8c1.8,0,2,1.3,1,2.8L211.4,245l50.3,83C262.3,328.7,262.2,329.8,261.4,330.4
		z M381.3,323.2c-15.8,6.7-32.8,10.2-50,10.2c-37.6,0-66.6-21.3-66.6-64.5c0-36.3,27.2-66.8,73.7-66.8c2,0,4.6,0.3,8.4,0.5v-50
		c-0.1-0.9,0.5-1.7,1.4-1.8c0.1,0,0.2,0,0.4,0h32c1.3,0,1.5,0.5,1.5,1.5v150.1c-0.1,6.2,0.3,12.4,1,18.5
		C383.1,322.2,382.8,322.7,381.3,323.2z"/>
</g>
</svg>
