<?xml version="1.0" encoding="utf-8"?>
<!-- Generator: Adobe Illustrator 24.3.0, SVG Export Plug-In . SVG Version: 6.00 Build 0)  -->
<svg version="1.1" id="icon" xmlns="http://www.w3.org/2000/svg" xmlns:xlink="http://www.w3.org/1999/xlink" x="0px" y="0px"
	 viewBox="0 0 32 32" style="enable-background:new 0 0 32 32;" xml:space="preserve">
<style type="text/css">
	.st0{fill:#66FCF1;}
</style>
<g>
	<path class="st0" d="M27,24c-0.4,0-0.9,0.1-1.3,0.3L21.4,20H18v2h2.6l3.7,3.7C24.1,26.1,24,26.6,24,27c0,1.7,1.3,3,3,3s3-1.3,3-3
		S28.7,24,27,24z M27,28c-0.6,0-1-0.4-1-1s0.4-1,1-1s1,0.4,1,1C28,27.6,27.6,28,27,28z"/>
	<path class="st0" d="M27,13c-1.3,0-2.4,0.8-2.8,2H18v2h6.2c0.6,1.6,2.3,2.4,3.8,1.8c1.6-0.6,2.4-2.3,1.8-3.8
		C29.4,13.8,28.3,13,27,13z M27,17c-0.6,0-1-0.4-1-1c0-0.6,0.4-1,1-1s1,0.4,1,1C28,16.6,27.6,17,27,17z"/>
	<path class="st0" d="M27,2c-1.7,0-3,1.3-3,3c0,0.5,0.1,1,0.3,1.4L20.6,10H18v2h3.4l4.4-4.3c1.5,0.7,3.3,0,3.9-1.6s0-3.3-1.6-3.9
		C27.8,2.1,27.4,2,27,2z M27,6c-0.6,0-1-0.4-1-1s0.4-1,1-1s1,0.4,1,1C28,5.6,27.6,6,27,6z"/>
	<path class="st0" d="M18,6h2V4h-2c-1.2,0-2.2,0.5-3,1.4C14.2,4.5,13.2,4,12,4h-1c-5,0-9,4-9,9v6c0,5,4,9,9,9h1c1.2,0,2.2-0.5,3-1.4
		c0.8,0.9,1.8,1.4,3,1.4h2v-2h-2c-1.1,0-2-0.9-2-2V8C16,6.9,16.9,6,18,6z M12,26h-1c-3.5,0-6.4-2.6-6.9-6H6v-2H4v-4h3
		c1.7,0,3-1.3,3-3V9H8v2c0,0.6-0.4,1-1,1H4.1C4.6,8.6,7.5,6,11,6h1c1.1,0,2,0.9,2,2v4h-2v2h2v4h-2c-1.7,0-3,1.3-3,3v2h2v-2
		c0-0.6,0.4-1,1-1h2v4C14,25.1,13.1,26,12,26z"/>
</g>
</svg>
