<?xml version="1.0" encoding="utf-8"?>
<!-- Generator: Adobe Illustrator 24.3.0, SVG Export Plug-In . SVG Version: 6.00 Build 0)  -->
<svg version="1.1" id="Layer_1" xmlns="http://www.w3.org/2000/svg" xmlns:xlink="http://www.w3.org/1999/xlink" x="0px" y="0px"
	 viewBox="0 0 48 48" style="enable-background:new 0 0 48 48;" xml:space="preserve">
<style type="text/css">
	.st0{fill:#66FCF1;}
</style>
<g>
	<path class="st0" d="M28,18.8c0-1.5-1.2-2.8-2.8-2.8c-0.1,0-4.3,0-4.3,0v5.5c0,0,4.2,0,4.3,0C26.8,21.5,28,20.3,28,18.8z"/>
	<path class="st0" d="M26,26h-5v6h5c1.7,0,3-1.3,3-3S27.7,26,26,26z"/>
	<path class="st0" d="M37,6H11c-2.8,0-5,2.2-5,5v26c0,2.8,2.2,5,5,5h26c2.8,0,5-2.2,5-5V11C42,8.2,39.8,6,37,6z M31.8,34.2
		c-1.4,1.2-3.6,1.8-6.4,1.8H15V12h9.4c3,0,4.8,0.8,6.3,1.9s2.3,2.8,2.3,4.9c0,1.2-0.3,2.3-0.8,3.2c-0.9,1.4-1.9,1.8-1.9,1.8
		c1.2,0.3,2.1,0.9,2.8,1.9c0.6,0.9,1,2,1,3.3C34,31.3,33.3,33,31.8,34.2z"/>
</g>
</svg>
