<?xml version="1.0" encoding="utf-8"?>
<!-- Generator: Adobe Illustrator 24.3.0, SVG Export Plug-In . SVG Version: 6.00 Build 0)  -->
<svg version="1.1" id="Layer_1" xmlns="http://www.w3.org/2000/svg" xmlns:xlink="http://www.w3.org/1999/xlink" x="0px" y="0px"
	 viewBox="0 0 431.3 247.9" style="enable-background:new 0 0 431.3 247.9;" xml:space="preserve">
<style type="text/css">
	.st0{fill:#676766;}
	.st1{fill:#575756;}
</style>
<g>
	<path class="st0" d="M270.9,11.4c0,0-55.5,15-52.1,63.6c3.5,48.6-74.4,73.5-74.4,73.5s89.9-18.4,90.3-51.4l-12.5,3.8l8-10.4
		c0,0,3-6.8,2.4-10.5c0,0,0,0,0-0.1C231.1,32.9,270.9,11.4,270.9,11.4z"/>
	<path class="st0" d="M70.1,75C73.6,26.4,18,11.4,18,11.4S57.7,32.9,56.2,80c0,0,0,0,0,0.1c-0.6,3.7,2.4,10.5,2.4,10.5l8,10.4
		l-12.5-3.8c0.4,33,90.3,51.4,90.3,51.4S66.6,123.6,70.1,75z"/>
	<path class="st0" d="M188.4,138.5c-40.8-4.4-43.5,6.5-43.7,10.4c-0.2-3.9-3.4-14.8-44.2-10.4c-4,0.4-6.6,4.4-5.4,8.2
		c2.3,7.3,6.9,18.2,14.6,23.9c6.7,4.9,11.3,12.3,11.9,20.6c0.2,2.3,0.2,4.8-0.1,7.2c-1,8.4,1.8,16.5,7.2,22.4
		c1.3,1.4,2.5,2.9,3.4,4.6c0.6,1.1,1.3,2.1,2.2,3v-17.5l3.6,3.6V231c2,1.1,4.3,1.6,6.5,1.6s4.4-0.5,6.4-1.6v-16.7l3.6-3.6v17.6
		c0.9-0.9,1.7-2,2.3-3.1c0.8-1.5,1.7-2.9,2.9-4.1c5.7-5.9,8.7-14.2,7.7-22.9c-0.3-2.4-0.3-4.8-0.1-7.2c0.6-8.3,5.2-15.7,11.9-20.6
		c7.8-5.7,12.3-16.6,14.6-23.9C195,142.9,192.4,138.9,188.4,138.5z M134.4,168.3c-17.2-6.1-19.9-21.8-19.9-21.9l0,0l-4.8-0.4
		c0,0,1.9-0.2,4.8,0.4l0,0l0,0C120,147.7,129.1,152.2,134.4,168.3C134.4,168.2,134.4,168.3,134.4,168.3z M174.5,146.4L174.5,146.4
		c0,0-2.7,15.8-19.9,21.9c0,0-0.1,0-0.1-0.1C159.8,152.3,168.9,147.7,174.5,146.4L174.5,146.4L174.5,146.4c2.9-0.7,4.8-0.4,4.8-0.4
		L174.5,146.4z"/>
	<path class="st0" d="M154.9,169.9l-1.4-1.3l0.3-0.9c8.3-25,26.2-23.3,26.4-23.2l-0.3,3c-0.2,0-1.5-0.1-3.4,0.2
		c-0.9,3.7-5.2,16.5-20.7,22L154.9,169.9z M173.1,148.5c-4.7,1.8-11,6.2-15.3,17.1C167.9,160.8,171.8,152.6,173.1,148.5z"/>
	<g>
		<g>
			<path class="st1" d="M254.7,160.9c1.2-1.3,3-3.2,5.6-5.7s4.6-4.5,6.1-5.9c1.7-1.6,3.1-2.9,4.3-4c1.2-1.1,2.2-2,3.1-2.7
				s1.8-1.4,2.8-2.1c1-0.7,2.1-1.5,3.5-2.3l0.4,0.2c-3.3,3.7-5.4,6.1-6.1,7l-0.6,0.7c-0.1,0.1-0.4,0.5-0.8,1
				c-2.8,3.2-5.9,6.9-9.2,11c-2.6,3.3-4.5,5.7-5.6,7.1s-1.9,2.6-2.4,3.4c-0.6,0.9-0.9,1.6-1.2,2.2c-0.2,0.6-0.2,0.9,0.1,0.9
				c0.4,0,1-0.4,1.9-1.2s1.9-1.7,3-2.9c1.1-1.1,2.8-3,5.2-5.5c0.6-0.6,1.1-1.2,1.7-1.9c0.6-0.6,1.2-1.3,2-2.2
				c0.8-0.8,1.5-1.6,2.2-2.3c2.7-2.9,4.8-5,6.1-6.3c1.4-1.3,3.1-2.9,5.1-4.7l1.7-1.5c2.6-2.3,4.9-4,6.9-5.2l0.4,0.2l-1.2,1.5
				c-4.2,5-7.8,9.4-11,13.4c-3.2,3.9-5.6,7-7.3,9.3c-1.7,2.3-3.1,4.2-4.1,5.7s-1.5,2.5-1.5,2.8c0,0.4,0.2,0.7,0.7,0.7
				c0.7,0,1.6-0.4,2.8-1.3c1.2-0.9,2.6-2,4.3-3.6c1.7-1.5,3-2.7,4-3.6v0.5c-2.6,2.4-4.4,4-5.6,5.1s-2.2,1.8-3.2,2.4
				s-1.8,0.9-2.6,0.9c-0.7,0-1.1-0.4-1.1-1.2c0-1.6,0.6-3.4,1.7-5.6s2.7-4.4,4.6-6.7s4.3-5,7.1-8l10.7-11.2c-2.1,1.1-5.7,4.2-11,9.2
				c-0.2,0.2-0.5,0.5-0.9,0.9s-1,1-1.9,1.9s-2,2.1-3.5,3.6c-1.4,1.5-2.8,3-4.1,4.4l-0.9,0.9c-0.2,0.3-0.5,0.6-0.9,1
				c-2.5,2.8-4.4,4.8-5.6,6.1s-2.4,2.4-3.5,3.3c-1.1,0.9-1.9,1.4-2.5,1.4c-0.1,0-0.3-0.1-0.4-0.4c-0.1-0.2-0.2-0.5-0.2-0.7
				c0-1.3,0.4-2.8,1.2-4.4c0.8-1.6,1.8-3.2,2.9-4.8c1.2-1.6,2.3-3,3.6-4.4c3.2-3.7,5.7-6.4,7.4-8.3c1.7-1.9,3.8-3.9,6.1-6.2l4.2-4
				c-1.8,1.2-3.2,2.1-4.1,2.8s-2.3,1.9-4.1,3.4c-0.8,0.7-1.9,1.7-3.5,3.2c-1.5,1.5-2.9,2.8-4.2,4c-1.2,1.2-2.6,2.5-3.9,3.9
				c-1.4,1.4-2.8,2.9-4.3,4.6c-2,2.2-3.4,3.7-4.2,4.6c-0.8,0.9-1.9,1.9-3.2,3c-1.3,1.1-2.7,1.9-4.2,2.5s-3.1,0.9-4.7,0.9
				c-1.2,0-2.1-0.2-2.8-0.7c-0.7-0.5-1.1-1.2-1.1-2c0-0.6,0.1-1.1,0.4-1.5s0.7-0.6,1.3-0.6c0.3,0,0.6,0.1,0.9,0.3s0.4,0.5,0.4,0.8
				s-0.1,0.5-0.3,0.7c-0.2,0.2-0.4,0.3-0.7,0.3c-0.7,0-1-0.4-0.8-1.2c0-0.1,0-0.2-0.1-0.2c-0.2,0-0.4,0.2-0.5,0.5s-0.2,0.6-0.2,1
				c0,0.7,0.3,1.2,1,1.6c0.6,0.4,1.4,0.7,2.4,0.7c1.7,0,3.4-0.3,4.9-0.9c1.5-0.6,2.8-1.4,4-2.4c1.1-0.9,2.1-1.8,2.9-2.6
				C251,165.1,252.5,163.4,254.7,160.9z"/>
			<path class="st1" d="M288.4,155.7c-3.4,0.2-5.8-0.3-7.3-1.5c-1.4-1.2-2.1-2.8-2.1-4.7c0-1,0.3-2.2,1-3.4c0.6-1.3,1.7-2.5,3.3-3.7
				c1.6-1.2,3.7-2.2,6.5-2.9c2.8-0.8,6.2-1.2,10.4-1.2v0.4c-4.3,0-7.9,0.4-10.7,1.3c-2.8,0.8-4.9,1.9-6.3,3
				c-1.4,1.2-2.3,2.3-2.8,3.5s-0.8,2.2-0.8,3.1c0,1.8,0.7,3.3,2.2,4.4c1.5,1.1,3.9,1.5,7.1,1.3c1.6-1.8,3.6-3.6,5.9-5.7
				c2.3-2,4.7-3.9,7.2-5.6c2.5-1.7,4.9-3.1,7.2-4.2c2.3-1.1,4.3-1.6,6.1-1.6c1.5,0,2.3,0.7,2.3,2.1c0,1.5-1.2,3.2-3.6,5.2
				s-5.6,3.8-9.5,5.5s-8.1,3.1-12.5,4c-1.9,2.1-3.5,4-4.6,5.5c-1.1,1.6-2,2.9-2.6,4.2S284,167,284,168s0.5,1.9,1.4,2.6
				c0.9,0.7,2.1,1.1,3.6,1.1c2,0,4.1-0.5,6.1-1.6c2.1-1.1,3.8-2.4,5.1-3.9s2-3,2-4.3c0-1.1-0.3-1.9-0.9-2.4s-1.5-0.8-2.6-0.8
				c-1.5,0-3.3,0.7-5.4,2c-2.1,1.4-4.1,3.9-6.1,7.6l-0.4-0.3c1.8-3.4,3.8-5.9,5.8-7.4c2.1-1.5,4.1-2.3,6.1-2.3c1.3,0,2.3,0.3,2.9,1
				s1,1.5,1,2.6s-0.4,2.3-1.2,3.5s-1.9,2.3-3.3,3.4c-1.4,1-2.9,1.9-4.5,2.5s-3.1,0.9-4.6,0.9c-2,0-3.5-0.5-4.6-1.4
				c-1.1-1-1.6-2.4-1.6-4.3c0-1.7,0.4-3.3,1.2-5C284.8,160,286.3,158,288.4,155.7z M292.2,154.7c3.2-0.8,6.4-1.8,9.5-3.1
				c3.1-1.2,5.8-2.5,8.1-3.9c2.3-1.4,4.1-2.7,5.3-3.9c1.2-1.3,1.9-2.5,1.9-3.5c0-1.1-0.6-1.6-1.8-1.6c-2,0-4.4,0.8-7.1,2.4
				c-2.7,1.6-5.4,3.6-8.2,6C297.1,149.5,294.6,152.1,292.2,154.7z"/>
			<path class="st1" d="M331.8,145.7l0.4,0.2c-1.5,1.3-2.9,2.2-4.3,2.8c-1.3,0.6-2.7,0.9-4.1,0.9c-2.9,0-4.4-1.2-4.4-3.6
				c0-0.8,0.2-1.6,0.7-2.4s1.1-1.7,2-2.6c0.9-0.8,2.1-1.5,3.6-2s3.2-0.8,5.3-0.8c1.6,0,2.8,0.3,3.8,0.8c0.9,0.6,1.4,1.3,1.4,2.2
				c0,0.2-0.1,0.6-0.2,1.3s-0.2,1-0.2,0.9c0,0.5,0.5,0.8,1.4,0.8c1.1,0,2.1-0.3,3.2-0.9c1.1-0.6,2.4-1.6,3.9-3
				c1.3-1.2,2.1-1.8,2.4-1.8c0.2,0,0.3,0.1,0.3,0.2c0,0.2-0.2,0.4-0.6,0.7c-0.8,0.5-2.3,1.7-4.5,3.5c-2.8,2.4-5.9,6.4-9.2,12.2
				l6.9-1.5l3.1-3.2l1.7-1.6c3.2-3,6.4-5.6,9.4-7.6s5.5-3,7.5-3c0.7,0,1.2,0.1,1.6,0.4s0.6,0.7,0.6,1.2c0,1.6-1,3.4-3.1,5.2
				s-4.7,3.4-7.9,4.9c-3.2,1.5-6.6,2.6-10,3.4c-1.2,1.5-2.5,3.2-3.9,5s-2.6,3.5-3.6,5s-1.8,2.8-2.4,4s-0.9,2.1-0.9,2.9
				c0,0.4,0.2,0.8,0.5,1.1s0.7,0.5,1.1,0.5c0.9,0,1.8-0.2,2.8-0.7s2.1-1.1,3.3-2c1.2-0.9,2.4-1.8,3.5-2.7c1.1-1,2.3-2,3.5-3v0.5
				c-1.5,1.3-2.8,2.4-3.7,3.2c-1,0.9-2,1.7-3.1,2.5s-2.2,1.5-3.2,1.9c-1,0.5-2,0.7-2.8,0.7s-1.5-0.3-2-0.8s-0.7-1.2-0.7-2
				c0-4,2.8-9,8.4-15.2l-6.7,1.5c-0.1,0.3-0.6,1.1-1.5,2.2s-2.1,2.4-3.5,3.9s-3.1,3-5.1,4.6c-1.6,1.3-3.5,2.6-5.7,3.9
				c-2.3,1.3-4.5,2-6.6,2c-1.1,0-1.8-0.2-2.1-0.6c-0.4-0.4-0.5-0.9-0.5-1.6c0-1.5,1-3.3,2.9-5.3s4.6-3.8,8-5.5s7.2-2.8,11.5-3.5
				l1-1.2c1.9-2.4,3.4-4.1,4.3-5.1s2.7-2.9,5.5-5.6c-1.5,0.5-2.6,0.8-3.5,0.8c-1.6,0-2.4-0.7-2.4-2c0,0,0.1-0.4,0.2-1.1
				c0.1-0.7,0.2-1,0.2-1.1c0-1.3-1.2-1.9-3.7-1.9c-2.6,0-4.8,0.4-6.4,1.3c-1.7,0.9-2.9,1.9-3.6,3s-1.1,2.2-1.1,3.1
				c0,1,0.3,1.7,1,2.3s1.6,0.8,2.9,0.8c1.4,0,2.7-0.3,3.9-0.8C329,147.8,330.3,146.9,331.8,145.7z M329.1,156.4
				c-4.3,0.8-8.1,2-11.3,3.7c-3.3,1.7-5.7,3.4-7.5,5.3s-2.6,3.4-2.6,4.6c0,1.2,0.8,1.9,2.4,1.9c1.2,0,2.8-0.4,4.7-1.3
				c1.9-0.9,4.1-2.5,6.6-4.8C323.9,163.5,326.5,160.3,329.1,156.4z M343,152.8c5.3-1.5,9.5-3.1,12.4-4.9s5-3.3,6.1-4.7
				s1.6-2.5,1.6-3.3c0-0.9-0.5-1.4-1.6-1.4c-1.3,0-2.9,0.5-4.7,1.6c-1.8,1.1-3.8,2.5-5.7,4.2c-2,1.7-3.7,3.3-5,4.7
				C344.7,150.6,343.7,151.8,343,152.8z"/>
		</g>
		<path class="st1" d="M192.5,206.2c-0.2,0-0.3-0.1-0.4-0.2l-0.1-0.7c1-1.6,26.4-14.9,64.8-24.1c35.4-8.5,90.4-15.4,151.3-0.4
			l-0.2,1c-60.5-14.9-115.1-8.1-150.2,0.2c-29.9,7.1-51.5,16.6-60.3,21.2l0.4,0.8C194.2,205.7,193,206.2,192.5,206.2z"/>
		<path class="st1" d="M192.7,206l-0.4-0.7c41.6-22.5,42.5-35.7,42.5-35.8h0.8C235.5,170.1,234.8,183.3,192.7,206z"/>
	</g>
	<path class="st0" d="M134,169.9l-0.9-0.3c-15.5-5.5-19.8-18.3-20.7-22c-1.9-0.3-3.2-0.2-3.4-0.2l-0.3-3c0.2,0,18.1-1.8,26.4,23.3
		l0.3,0.9L134,169.9z M115.8,148.5c1.3,4.1,5.2,12.4,15.3,17.1C126.8,154.6,120.5,150.2,115.8,148.5z"/>
</g>
</svg>
